<svg id="visual" viewBox="0 0 900 600" width="900" height="600" xmlns="http://www.w3.org/2000/svg" xmlns:xlink="http://www.w3.org/1999/xlink" version="1.1"><rect x="0" y="0" width="900" height="600" fill="#ffffff"></rect><defs><linearGradient id="grad1_0" x1="33.3%" y1="0%" x2="100%" y2="100%"><stop offset="20%" stop-color="#198754" stop-opacity="1"></stop><stop offset="80%" stop-color="#198754" stop-opacity="1"></stop></linearGradient></defs><defs><linearGradient id="grad1_1" x1="33.3%" y1="0%" x2="100%" y2="100%"><stop offset="20%" stop-color="#198754" stop-opacity="1"></stop><stop offset="80%" stop-color="#4b9b6e" stop-opacity="1"></stop></linearGradient></defs><defs><linearGradient id="grad1_2" x1="33.3%" y1="0%" x2="100%" y2="100%"><stop offset="20%" stop-color="#71af8a" stop-opacity="1"></stop><stop offset="80%" stop-color="#4b9b6e" stop-opacity="1"></stop></linearGradient></defs><defs><linearGradient id="grad1_3" x1="33.3%" y1="0%" x2="100%" y2="100%"><stop offset="20%" stop-color="#71af8a" stop-opacity="1"></stop><stop offset="80%" stop-color="#95c3a6" stop-opacity="1"></stop></linearGradient></defs><defs><linearGradient id="grad1_4" x1="33.3%" y1="0%" x2="100%" y2="100%"><stop offset="20%" stop-color="#b8d7c3" stop-opacity="1"></stop><stop offset="80%" stop-color="#95c3a6" stop-opacity="1"></stop></linearGradient></defs><defs><linearGradient id="grad1_5" x1="33.3%" y1="0%" x2="100%" y2="100%"><stop offset="20%" stop-color="#b8d7c3" stop-opacity="1"></stop><stop offset="80%" stop-color="#dbebe1" stop-opacity="1"></stop></linearGradient></defs><defs><linearGradient id="grad1_6" x1="33.3%" y1="0%" x2="100%" y2="100%"><stop offset="20%" stop-color="#ffffff" stop-opacity="1"></stop><stop offset="80%" stop-color="#dbebe1" stop-opacity="1"></stop></linearGradient></defs><defs><linearGradient id="grad2_0" x1="0%" y1="0%" x2="66.7%" y2="100%"><stop offset="20%" stop-color="#198754" stop-opacity="1"></stop><stop offset="80%" stop-color="#198754" stop-opacity="1"></stop></linearGradient></defs><defs><linearGradient id="grad2_1" x1="0%" y1="0%" x2="66.7%" y2="100%"><stop offset="20%" stop-color="#4b9b6e" stop-opacity="1"></stop><stop offset="80%" stop-color="#198754" stop-opacity="1"></stop></linearGradient></defs><defs><linearGradient id="grad2_2" x1="0%" y1="0%" x2="66.7%" y2="100%"><stop offset="20%" stop-color="#4b9b6e" stop-opacity="1"></stop><stop offset="80%" stop-color="#71af8a" stop-opacity="1"></stop></linearGradient></defs><defs><linearGradient id="grad2_3" x1="0%" y1="0%" x2="66.7%" y2="100%"><stop offset="20%" stop-color="#95c3a6" stop-opacity="1"></stop><stop offset="80%" stop-color="#71af8a" stop-opacity="1"></stop></linearGradient></defs><defs><linearGradient id="grad2_4" x1="0%" y1="0%" x2="66.7%" y2="100%"><stop offset="20%" stop-color="#95c3a6" stop-opacity="1"></stop><stop offset="80%" stop-color="#b8d7c3" stop-opacity="1"></stop></linearGradient></defs><defs><linearGradient id="grad2_5" x1="0%" y1="0%" x2="66.7%" y2="100%"><stop offset="20%" stop-color="#dbebe1" stop-opacity="1"></stop><stop offset="80%" stop-color="#b8d7c3" stop-opacity="1"></stop></linearGradient></defs><defs><linearGradient id="grad2_6" x1="0%" y1="0%" x2="66.7%" y2="100%"><stop offset="20%" stop-color="#dbebe1" stop-opacity="1"></stop><stop offset="80%" stop-color="#ffffff" stop-opacity="1"></stop></linearGradient></defs><g transform="translate(900, 0)"><path d="M0 297.5C-47.7 282.7 -95.5 268 -141.5 245.1C-187.5 222.1 -231.9 190.9 -257.6 148.7C-283.3 106.5 -290.4 53.3 -297.5 0L0 0Z" fill="#edf5f0"></path><path d="M0 255C-40.9 242.4 -81.8 229.7 -121.3 210.1C-160.7 190.4 -198.8 163.7 -220.8 127.5C-242.8 91.3 -248.9 45.6 -255 0L0 0Z" fill="#cae1d2"></path><path d="M0 212.5C-34.1 202 -68.2 191.5 -101.1 175.1C-134 158.7 -165.6 136.4 -184 106.2C-202.4 76.1 -207.4 38 -212.5 0L0 0Z" fill="#a6cdb4"></path><path d="M0 170C-27.3 161.6 -54.5 153.2 -80.9 140C-107.2 126.9 -132.5 109.1 -147.2 85C-161.9 60.9 -165.9 30.4 -170 0L0 0Z" fill="#83b998"></path><path d="M0 127.5C-20.5 121.2 -40.9 114.9 -60.6 105C-80.4 95.2 -99.4 81.8 -110.4 63.7C-121.4 45.6 -124.5 22.8 -127.5 0L0 0Z" fill="#5fa57c"></path><path d="M0 85C-13.6 80.8 -27.3 76.6 -40.4 70C-53.6 63.5 -66.3 54.6 -73.6 42.5C-80.9 30.4 -83 15.2 -85 0L0 0Z" fill="#369161"></path><path d="M0 42.5C-6.8 40.4 -13.6 38.3 -20.2 35C-26.8 31.7 -33.1 27.3 -36.8 21.2C-40.5 15.2 -41.5 7.6 -42.5 0L0 0Z" fill="#198754"></path></g><g transform="translate(0, 600)"><path d="M0 -297.5C52.4 -289.9 104.9 -282.4 148.7 -257.6C192.6 -232.8 227.8 -190.8 251.1 -145C274.5 -99.2 286 -49.6 297.5 0L0 0Z" fill="#edf5f0"></path><path d="M0 -255C45 -248.5 89.9 -242 127.5 -220.8C165.1 -199.6 195.3 -163.5 215.3 -124.3C235.3 -85 245.1 -42.5 255 0L0 0Z" fill="#cae1d2"></path><path d="M0 -212.5C37.5 -207.1 74.9 -201.7 106.2 -184C137.5 -166.3 162.7 -136.3 179.4 -103.6C196.1 -70.9 204.3 -35.4 212.5 0L0 0Z" fill="#a6cdb4"></path><path d="M0 -170C30 -165.7 59.9 -161.4 85 -147.2C110 -133 130.2 -109 143.5 -82.9C156.9 -56.7 163.4 -28.3 170 0L0 0Z" fill="#83b998"></path><path d="M0 -127.5C22.5 -124.3 45 -121 63.7 -110.4C82.5 -99.8 97.6 -81.8 107.6 -62.1C117.6 -42.5 122.6 -21.3 127.5 0L0 0Z" fill="#5fa57c"></path><path d="M0 -85C15 -82.8 30 -80.7 42.5 -73.6C55 -66.5 65.1 -54.5 71.8 -41.4C78.4 -28.3 81.7 -14.2 85 0L0 0Z" fill="#369161"></path><path d="M0 -42.5C7.5 -41.4 15 -40.3 21.2 -36.8C27.5 -33.3 32.5 -27.3 35.9 -20.7C39.2 -14.2 40.9 -7.1 42.5 0L0 0Z" fill="#198754"></path></g></svg>